<?xml version="1.0" encoding="utf-8"?>
<!-- Generator: Adobe Illustrator 27.2.0, SVG Export Plug-In . SVG Version: 6.00 Build 0)  -->
<svg version="1.1" id="Layer_1" xmlns="http://www.w3.org/2000/svg" xmlns:xlink="http://www.w3.org/1999/xlink" x="0px" y="0px"
	 viewBox="0 0 736 737.2" style="enable-background:new 0 0 736 737.2;" xml:space="preserve">
<style type="text/css">
	.st0{fill:#FE0000;}
</style>
<path class="st0" d="M368,736c-96.1,0-192.1,0-289.3,0c-33.6,0-64.8-24.3-74.1-53.2C1.2,673.6,0,664.3,0,655C0,464.1,0,272,0,81
	C0,34.7,34.7,0,81,0c191,0,383.1,0,574,0c40.5,0,69.4,24.3,78.7,59C736,66,736,72.9,736,79.9c0,192.1,0,384.2,0,577.5
	c0,47.4-37,79.9-79.9,79.9C561.3,736,464.1,736,368,736z M162,532.4c0,33.6,0,61.3,0,89.1c0,5.8,1.2,8.1,8.1,8.1
	c32.4,0,64.8,0,97.2,0c6.9,0,8.1-2.3,8.1-8.1c0-53.2,0-106.5,0-158.6c0-22,19.7-37,37-37c38.2,1.2,76.4,0,114.6,0
	c8.1,0,16.2-1.2,24.3-2.3C521.9,412,574,350.7,575.2,277.8c0-54.4,0-107.6,0-162c0-5.8-1.2-6.9-8.1-6.9c-32.4,0-64.8,0-97.2,0
	c-6.9,0-8.1,1.2-8.1,8.1c0,52.1,0,104.2,0,156.2c0,20.8-12.7,40.5-40.5,40.5c-35.9-1.2-72.9,0-108.8,0c-18.5,0-35.9,2.3-53.2,9.3
	c-56.7,23.1-89.1,64.8-96.1,126.1C159.7,476.8,163.2,508.1,162,532.4z M275.4,202.5c0-30.1,0-60.2,0-90.3c0-4.6-1.2-6.9-6.9-6.9
	c-33.6,0-67.1,0-99.5,0c-4.6,0-6.9,1.2-6.9,6.9c0,60.2,0,120.4,0,179.4c0,5.8,1.2,6.9,6.9,6.9c33.6,0,66,0,99.5,0
	c5.8,0,6.9-1.2,6.9-6.9C274.3,262.7,275.4,232.6,275.4,202.5z M460.6,532.4c0,30.1,0,60.2,0,89.1c0,5.8,2.3,6.9,8.1,6.9
	c32.4,0,66,0,98.4,0c5.8,0,8.1-2.3,8.1-8.1c0-59,0-119.2,0-178.2c0-5.8-1.2-8.1-6.9-8.1c-33.6,0-66,0-99.5,0c-5.8,0-6.9,1.2-6.9,6.9
	C460.6,472.2,460.6,502.3,460.6,532.4z"/>
</svg>
